<svg xmlns="http://www.w3.org/2000/svg" viewBox="0 0 512 512">
  <rect width="512" height="512" rx="112" fill="#F2F0E8"/>
  <!-- stem -->
  <path d="M262 400c-10-52 6-92 22-140" stroke="#3F7A66" stroke-width="26" fill="none" stroke-linecap="round"/>
  <!-- leaves -->
  <path d="M256 348c-44-2-72-24-82-58 40-2 70 20 82 58z" fill="#5C9A80"/>
  <path d="M272 366c42-12 60-38 60-72-36 8-56 34-60 72z" fill="#5C9A80"/>
  <!-- head: open flytrap jaws -->
  <g transform="rotate(-16 292 176)">
    <!-- upper jaw -->
    <path d="M180 176a112 92 0 0 1 224 0z" fill="#5C9A80"/>
    <!-- lower jaw -->
    <path d="M192 176a100 62 0 0 0 200 0z" fill="#3F7A66"/>
    <!-- mouth gap (dark maw) -->
    <path d="M196 176h192l-16 24c-56 20-104 20-160 0z" fill="#4A211D"/>
    <!-- interlocking teeth -->
    <path d="M196 176l16 20 16-20 16 20 16-20 16 20 16-20 16 20 16-20 16 20 16-20 16 20 16-20z" fill="#F2F0E8"/>
    <!-- eye bumps -->
    <circle cx="250" cy="112" r="11" fill="#171C18"/>
    <circle cx="334" cy="112" r="11" fill="#171C18"/>
  </g>
  <!-- pot -->
  <path d="M188 400h136l-14 66a16 16 0 0 1-16 13h-76a16 16 0 0 1-16-13z" fill="#C05F42"/>
  <rect x="174" y="380" width="164" height="32" rx="12" fill="#A34630"/>
</svg>
